# xmcd
#
# Track frame offsets:
#	150
#	11913
#	23539
#	37260
#	48904
#	62030
#	74213
#	87277
#	100033
#	114297
#	126951
#	141052
#	151715
#	162686
#	175699
#	187311
#	200452
#	211860
#	224685
#	237469
#
# Disc length: 3329 seconds
#
# Revision: 0
# Processed by: cddbd v1.5.2PL0 Copyright (c) Steve Scherf et al.
# Submitted via: EZCDAudioConverter 2.1.7.1
#
DISCID=290cff14
DTITLE=Sister Rosetta Tharpe - Original Soul Sister 1/4
DYEAR=2002
DGENRE=
TTITLE0=Rock Me
TTITLE1=That's All
TTITLE2=My Man And I
TTITLE3=The Lonesome Road
TTITLE4=Bring Back Those Happy Days
TTITLE5=This Train
TTITLE6=I Looked Down The Lane (And I Wondered)
TTITLE7=God Don't Like It
TTITLE8=Beams Of Heaven
TTITLE9=Saviour Don't Pass Me By
TTITLE10=The End Of My Journey
TTITLE11=Sit Down
TTITLE12=There Is Something Within Me
TTITLE13=Stand By Me
TTITLE14=Trouble In Mind
TTITLE15=Rock Daniel
TTITLE16=Four Or Five Times
TTITLE17=Shout, Sister, Shout
TTITLE18=The Lonesome Road
TTITLE19=Shout, Sister, Shout
EXTD=
EXTT0=
EXTT1=
EXTT2=
EXTT3=
EXTT4=
EXTT5=
EXTT6=
EXTT7=
EXTT8=
EXTT9=
EXTT10=
EXTT11=
EXTT12=
EXTT13=
EXTT14=
EXTT15=
EXTT16=
EXTT17=
EXTT18=
EXTT19=
PLAYORDER=
